<mxfile host="app.diagrams.net" modified="2024-04-12T15:04:19.281Z" agent="Mozilla/5.0 (X11; Ubuntu; Linux x86_64; rv:124.0) Gecko/20100101 Firefox/124.0" etag="JEUSBFxoVlwjkTK6yBvD" version="24.2.2" type="device">
  <diagram name="Page-1" id="Mqpwdbrha0GvBiFKQVdr">
    <mxGraphModel dx="1364" dy="766" grid="1" gridSize="10" guides="1" tooltips="1" connect="1" arrows="1" fold="1" page="1" pageScale="1" pageWidth="600" pageHeight="600" math="0" shadow="0">
      <root>
        <mxCell id="0" />
        <mxCell id="1" parent="0" />
        <mxCell id="CfA6QvVlH5yapuHg3LWZ-12" value="Global State and Configuration" style="rounded=0;whiteSpace=wrap;html=1;strokeColor=default;fontFamily=Helvetica;fontSize=12;fontColor=default;fillColor=default;" parent="1" vertex="1">
          <mxGeometry x="330" y="360" width="540" height="220" as="geometry" />
        </mxCell>
        <mxCell id="CfA6QvVlH5yapuHg3LWZ-27" value="uses" style="edgeStyle=orthogonalEdgeStyle;rounded=0;orthogonalLoop=1;jettySize=auto;html=1;exitX=0;exitY=0.5;exitDx=0;exitDy=0;entryX=1;entryY=0.5;entryDx=0;entryDy=0;fontFamily=Helvetica;fontSize=12;fontColor=default;" parent="1" source="CfA6QvVlH5yapuHg3LWZ-1" target="CfA6QvVlH5yapuHg3LWZ-3" edge="1">
          <mxGeometry relative="1" as="geometry" />
        </mxCell>
        <mxCell id="CfA6QvVlH5yapuHg3LWZ-28" value="uses" style="edgeStyle=orthogonalEdgeStyle;rounded=0;orthogonalLoop=1;jettySize=auto;html=1;exitX=1;exitY=0.5;exitDx=0;exitDy=0;entryX=0;entryY=0.5;entryDx=0;entryDy=0;fontFamily=Helvetica;fontSize=12;fontColor=default;" parent="1" source="CfA6QvVlH5yapuHg3LWZ-1" target="CfA6QvVlH5yapuHg3LWZ-2" edge="1">
          <mxGeometry relative="1" as="geometry" />
        </mxCell>
        <mxCell id="CfA6QvVlH5yapuHg3LWZ-33" value="uses&lt;br&gt;" style="edgeStyle=orthogonalEdgeStyle;rounded=0;orthogonalLoop=1;jettySize=auto;html=1;exitX=0.5;exitY=1;exitDx=0;exitDy=0;entryX=0.5;entryY=0;entryDx=0;entryDy=0;fontFamily=Helvetica;fontSize=12;fontColor=default;" parent="1" source="CfA6QvVlH5yapuHg3LWZ-1" target="CfA6QvVlH5yapuHg3LWZ-12" edge="1">
          <mxGeometry relative="1" as="geometry" />
        </mxCell>
        <mxCell id="CfA6QvVlH5yapuHg3LWZ-1" value="&lt;b&gt;Speedtracker&lt;/b&gt;" style="html=1;whiteSpace=wrap;" parent="1" vertex="1">
          <mxGeometry x="530" y="235" width="140" height="50" as="geometry" />
        </mxCell>
        <mxCell id="CfA6QvVlH5yapuHg3LWZ-2" value="«interface»&lt;br&gt;&lt;b&gt;BenchmarkRunner&lt;/b&gt;" style="html=1;whiteSpace=wrap;" parent="1" vertex="1">
          <mxGeometry x="720" y="175" width="140" height="50" as="geometry" />
        </mxCell>
        <mxCell id="CfA6QvVlH5yapuHg3LWZ-3" value="«interface»&lt;br&gt;&lt;b&gt;SnapshotLoader&lt;br&gt;&lt;/b&gt;" style="html=1;whiteSpace=wrap;" parent="1" vertex="1">
          <mxGeometry x="320" y="175" width="140" height="50" as="geometry" />
        </mxCell>
        <mxCell id="CfA6QvVlH5yapuHg3LWZ-26" style="edgeStyle=orthogonalEdgeStyle;rounded=0;orthogonalLoop=1;jettySize=auto;html=1;exitX=0.5;exitY=1;exitDx=0;exitDy=0;entryX=0;entryY=0.25;entryDx=0;entryDy=0;fontFamily=Helvetica;fontSize=12;fontColor=default;" parent="1" source="CfA6QvVlH5yapuHg3LWZ-4" target="CfA6QvVlH5yapuHg3LWZ-12" edge="1">
          <mxGeometry relative="1" as="geometry" />
        </mxCell>
        <mxCell id="CfA6QvVlH5yapuHg3LWZ-42" value="uses" style="edgeLabel;html=1;align=center;verticalAlign=middle;resizable=0;points=[];fontSize=12;fontFamily=Helvetica;fontColor=default;" parent="CfA6QvVlH5yapuHg3LWZ-26" vertex="1" connectable="0">
          <mxGeometry x="-0.0044" y="2" relative="1" as="geometry">
            <mxPoint as="offset" />
          </mxGeometry>
        </mxCell>
        <mxCell id="CfA6QvVlH5yapuHg3LWZ-31" value="implements" style="edgeStyle=orthogonalEdgeStyle;rounded=0;orthogonalLoop=1;jettySize=auto;html=1;exitX=1;exitY=0.5;exitDx=0;exitDy=0;entryX=0.75;entryY=1;entryDx=0;entryDy=0;fontFamily=Helvetica;fontSize=12;fontColor=default;endArrow=block;endFill=0;dashed=1;dashPattern=8 8;" parent="1" source="CfA6QvVlH5yapuHg3LWZ-4" target="CfA6QvVlH5yapuHg3LWZ-3" edge="1">
          <mxGeometry relative="1" as="geometry" />
        </mxCell>
        <mxCell id="CfA6QvVlH5yapuHg3LWZ-4" value="&lt;font color=&quot;#ffffff&quot;&gt;&lt;b&gt;GitSnapshotManager&lt;/b&gt;&lt;/font&gt;" style="html=1;whiteSpace=wrap;fillColor=#B81000;" parent="1" vertex="1">
          <mxGeometry x="240" y="275" width="135" height="50" as="geometry" />
        </mxCell>
        <mxCell id="CfA6QvVlH5yapuHg3LWZ-6" value="&lt;b&gt;UserConfig&lt;/b&gt;" style="html=1;whiteSpace=wrap;" parent="1" vertex="1">
          <mxGeometry x="360" y="390" width="140" height="50" as="geometry" />
        </mxCell>
        <mxCell id="CfA6QvVlH5yapuHg3LWZ-7" value="&lt;b&gt;SpeedtrackerConfig&lt;/b&gt;" style="html=1;whiteSpace=wrap;" parent="1" vertex="1">
          <mxGeometry x="530" y="390" width="140" height="49" as="geometry" />
        </mxCell>
        <mxCell id="CfA6QvVlH5yapuHg3LWZ-8" value="&lt;b&gt;ConfigProvider&lt;/b&gt;" style="html=1;whiteSpace=wrap;" parent="1" vertex="1">
          <mxGeometry x="530" y="501" width="140" height="49" as="geometry" />
        </mxCell>
        <mxCell id="CfA6QvVlH5yapuHg3LWZ-9" value="&lt;b&gt;SystemUtil&lt;/b&gt;" style="html=1;whiteSpace=wrap;" parent="1" vertex="1">
          <mxGeometry x="360" y="500" width="140" height="50" as="geometry" />
        </mxCell>
        <mxCell id="CfA6QvVlH5yapuHg3LWZ-10" value="&lt;b&gt;Configuration&lt;/b&gt;" style="html=1;whiteSpace=wrap;" parent="1" vertex="1">
          <mxGeometry x="700" y="390" width="141" height="49" as="geometry" />
        </mxCell>
        <mxCell id="CfA6QvVlH5yapuHg3LWZ-11" value="&lt;b&gt;...&lt;/b&gt;" style="html=1;whiteSpace=wrap;" parent="1" vertex="1">
          <mxGeometry x="700" y="500" width="140" height="50" as="geometry" />
        </mxCell>
        <mxCell id="CfA6QvVlH5yapuHg3LWZ-30" value="implements" style="edgeStyle=orthogonalEdgeStyle;rounded=0;orthogonalLoop=1;jettySize=auto;html=1;exitX=0;exitY=0.25;exitDx=0;exitDy=0;entryX=0.5;entryY=1;entryDx=0;entryDy=0;fontFamily=Helvetica;fontSize=12;fontColor=default;endArrow=block;endFill=0;dashed=1;dashPattern=8 8;" parent="1" source="F-67KJXBuZzq1g-ShTII-2" target="CfA6QvVlH5yapuHg3LWZ-2" edge="1">
          <mxGeometry relative="1" as="geometry">
            <mxPoint x="970" y="301.25" as="sourcePoint" />
          </mxGeometry>
        </mxCell>
        <mxCell id="CfA6QvVlH5yapuHg3LWZ-32" value="delegates&lt;br&gt;main functionality" style="edgeStyle=orthogonalEdgeStyle;rounded=0;orthogonalLoop=1;jettySize=auto;html=1;exitX=0.5;exitY=1;exitDx=0;exitDy=0;entryX=0.5;entryY=0;entryDx=0;entryDy=0;fontFamily=Helvetica;fontSize=12;fontColor=default;" parent="1" source="CfA6QvVlH5yapuHg3LWZ-14" target="CfA6QvVlH5yapuHg3LWZ-1" edge="1">
          <mxGeometry relative="1" as="geometry" />
        </mxCell>
        <mxCell id="CfA6QvVlH5yapuHg3LWZ-38" value="instantiates" style="edgeStyle=orthogonalEdgeStyle;rounded=0;orthogonalLoop=1;jettySize=auto;html=1;exitX=0;exitY=0.5;exitDx=0;exitDy=0;entryX=0.25;entryY=0;entryDx=0;entryDy=0;fontFamily=Helvetica;fontSize=12;fontColor=default;" parent="1" source="CfA6QvVlH5yapuHg3LWZ-14" target="CfA6QvVlH5yapuHg3LWZ-4" edge="1">
          <mxGeometry relative="1" as="geometry" />
        </mxCell>
        <mxCell id="CfA6QvVlH5yapuHg3LWZ-39" value="instantiates" style="edgeStyle=orthogonalEdgeStyle;rounded=0;orthogonalLoop=1;jettySize=auto;html=1;exitX=1;exitY=0.5;exitDx=0;exitDy=0;entryX=0.5;entryY=0;entryDx=0;entryDy=0;fontFamily=Helvetica;fontSize=12;fontColor=default;" parent="1" source="CfA6QvVlH5yapuHg3LWZ-14" target="F-67KJXBuZzq1g-ShTII-2" edge="1">
          <mxGeometry relative="1" as="geometry">
            <mxPoint x="1062.5" y="285" as="targetPoint" />
          </mxGeometry>
        </mxCell>
        <mxCell id="HlxVnmzwNW5SrRhRET_O-3" value="implements" style="edgeStyle=orthogonalEdgeStyle;rounded=0;orthogonalLoop=1;jettySize=auto;html=1;exitX=0.5;exitY=0;exitDx=0;exitDy=0;entryX=1;entryY=0.5;entryDx=0;entryDy=0;dashed=1;dashPattern=8 8;endArrow=block;endFill=0;" parent="1" source="CfA6QvVlH5yapuHg3LWZ-14" target="HlxVnmzwNW5SrRhRET_O-1" edge="1">
          <mxGeometry x="-0.2814" y="1" relative="1" as="geometry">
            <mxPoint x="1" as="offset" />
          </mxGeometry>
        </mxCell>
        <mxCell id="CfA6QvVlH5yapuHg3LWZ-14" value="&lt;b&gt;RunCommand&lt;/b&gt;" style="html=1;whiteSpace=wrap;" parent="1" vertex="1">
          <mxGeometry x="533" y="80" width="135" height="50" as="geometry" />
        </mxCell>
        <mxCell id="CfA6QvVlH5yapuHg3LWZ-40" value="initializes" style="edgeStyle=orthogonalEdgeStyle;rounded=0;orthogonalLoop=1;jettySize=auto;html=1;exitX=0.25;exitY=1;exitDx=0;exitDy=0;entryX=0;entryY=0.5;entryDx=0;entryDy=0;fontFamily=Helvetica;fontSize=12;fontColor=default;" parent="1" source="CfA6QvVlH5yapuHg3LWZ-15" target="CfA6QvVlH5yapuHg3LWZ-12" edge="1">
          <mxGeometry relative="1" as="geometry" />
        </mxCell>
        <mxCell id="HlxVnmzwNW5SrRhRET_O-2" value="&lt;div&gt;delegates&lt;/div&gt;&lt;div&gt;main&lt;/div&gt;&lt;div&gt;functionality&lt;br&gt;&lt;/div&gt;" style="edgeStyle=orthogonalEdgeStyle;rounded=0;orthogonalLoop=1;jettySize=auto;html=1;exitX=1;exitY=0.5;exitDx=0;exitDy=0;entryX=0;entryY=0.5;entryDx=0;entryDy=0;" parent="1" source="CfA6QvVlH5yapuHg3LWZ-15" target="HlxVnmzwNW5SrRhRET_O-1" edge="1">
          <mxGeometry relative="1" as="geometry" />
        </mxCell>
        <mxCell id="CfA6QvVlH5yapuHg3LWZ-15" value="&lt;b&gt;speedtracker.m&lt;br&gt;&lt;/b&gt;" style="html=1;whiteSpace=wrap;" parent="1" vertex="1">
          <mxGeometry x="170" y="10" width="135" height="50" as="geometry" />
        </mxCell>
        <mxCell id="HlxVnmzwNW5SrRhRET_O-1" value="«interface»&lt;br&gt;&lt;div&gt;&lt;b&gt;UserCommand&lt;/b&gt;&lt;/div&gt;" style="html=1;whiteSpace=wrap;" parent="1" vertex="1">
          <mxGeometry x="422" y="10" width="140" height="50" as="geometry" />
        </mxCell>
        <mxCell id="F-67KJXBuZzq1g-ShTII-5" value="&lt;font style=&quot;font-size: 12px;&quot;&gt;uses&lt;/font&gt;" style="edgeStyle=orthogonalEdgeStyle;rounded=0;orthogonalLoop=1;jettySize=auto;html=1;exitX=0.25;exitY=1;exitDx=0;exitDy=0;entryX=1;entryY=0.25;entryDx=0;entryDy=0;" parent="1" source="F-67KJXBuZzq1g-ShTII-2" target="CfA6QvVlH5yapuHg3LWZ-12" edge="1">
          <mxGeometry relative="1" as="geometry" />
        </mxCell>
        <mxCell id="F-67KJXBuZzq1g-ShTII-2" value="&lt;div&gt;&lt;b&gt;FunctionBenchmarkRunner&lt;br&gt;&lt;/b&gt;&lt;/div&gt;&lt;div&gt;&lt;b&gt;&lt;br&gt;&lt;/b&gt;&lt;/div&gt;&lt;div&gt;&lt;b&gt;&lt;br&gt;&lt;/b&gt;&lt;/div&gt;" style="html=1;whiteSpace=wrap;" parent="1" vertex="1">
          <mxGeometry x="960" y="285" width="190" height="90" as="geometry" />
        </mxCell>
        <mxCell id="F-67KJXBuZzq1g-ShTII-3" value="&lt;font color=&quot;#ffffff&quot;&gt;+ compareFunction(sol1, sol2)&lt;b&gt;&lt;br&gt;&lt;/b&gt;&lt;/font&gt;" style="html=1;whiteSpace=wrap;fillColor=#B81000;" parent="1" vertex="1">
          <mxGeometry x="970" y="325" width="170" height="30" as="geometry" />
        </mxCell>
      </root>
    </mxGraphModel>
  </diagram>
</mxfile>
